STARTFONT 2.1
FONT -PfaEdit-Triskweline-Normal-R-Normal--13-120-75-75-M-80-ISO10646-1
SIZE 12 75 75
FONTBOUNDINGBOX 8 13 0 -2
COMMENT "Generated by fontforge, http://fontforge.sourceforge.net"
STARTPROPERTIES 27
FONT_NAME "Triskweline"
UNDERLINE_POSITION -2
UNDERLINE_THICKNESS 1
FONT_ASCENT 11
FONT_DESCENT 2
QUAD_WIDTH 13
X_HEIGHT 5
CAP_HEIGHT 8
FONTNAME_REGISTRY ""
FAMILY_NAME "Triskweline"
FOUNDRY "PfaEdit"
WEIGHT_NAME "Normal"
SETWIDTH_NAME "Normal"
SLANT "R"
ADD_STYLE_NAME ""
PIXEL_SIZE 13
POINT_SIZE 120
RESOLUTION_X 75
RESOLUTION_Y 75
RESOLUTION 75
SPACING "M"
AVERAGE_WIDTH 80
CHARSET_REGISTRY "ISO10646"
CHARSET_ENCODING "1"
FULL_NAME "Triskweline"
COPYRIGHT "Created by Hunter M with PfaEdit 1.0 (http://pfaedit.sf.net)"
WEIGHT 10
ENDPROPERTIES
CHARS 231
STARTCHAR U+0020
ENCODING 32
SWIDTH 615 0
DWIDTH 8 0
BBX 1 1 7 -2
BITMAP
00
ENDCHAR
STARTCHAR U+0021
ENCODING 33
SWIDTH 615 0
DWIDTH 8 0
BBX 1 9 4 0
BITMAP
80
80
80
80
80
80
80
00
80
ENDCHAR
STARTCHAR U+0022
ENCODING 34
SWIDTH 615 0
DWIDTH 8 0
BBX 3 3 3 6
BITMAP
A0
A0
A0
ENDCHAR
STARTCHAR U+0023
ENCODING 35
SWIDTH 615 0
DWIDTH 8 0
BBX 5 9 2 0
BITMAP
50
50
F8
50
50
50
F8
50
50
ENDCHAR
STARTCHAR U+0024
ENCODING 36
SWIDTH 615 0
DWIDTH 8 0
BBX 5 9 2 0
BITMAP
20
70
88
80
70
08
88
70
20
ENDCHAR
STARTCHAR U+0025
ENCODING 37
SWIDTH 615 0
DWIDTH 8 0
BBX 7 9 1 0
BITMAP
40
A2
44
08
10
20
44
8A
04
ENDCHAR
STARTCHAR U+0026
ENCODING 38
SWIDTH 615 0
DWIDTH 8 0
BBX 6 9 2 0
BITMAP
30
48
48
50
20
54
88
90
6C
ENDCHAR
STARTCHAR U+0027
ENCODING 39
SWIDTH 615 0
DWIDTH 8 0
BBX 1 3 4 6
BITMAP
80
80
80
ENDCHAR
STARTCHAR U+0028
ENCODING 40
SWIDTH 615 0
DWIDTH 8 0
BBX 3 11 3 -2
BITMAP
20
40
40
80
80
80
80
80
40
40
20
ENDCHAR
STARTCHAR U+0029
ENCODING 41
SWIDTH 615 0
DWIDTH 8 0
BBX 3 11 3 -2
BITMAP
80
40
40
20
20
20
20
20
40
40
80
ENDCHAR
STARTCHAR U+002A
ENCODING 42
SWIDTH 615 0
DWIDTH 8 0
BBX 7 5 1 1
BITMAP
6C
38
FE
38
6C
ENDCHAR
STARTCHAR U+002B
ENCODING 43
SWIDTH 615 0
DWIDTH 8 0
BBX 7 7 1 0
BITMAP
10
10
10
FE
10
10
10
ENDCHAR
STARTCHAR U+002C
ENCODING 44
SWIDTH 615 0
DWIDTH 8 0
BBX 4 3 2 -2
BITMAP
30
60
C0
ENDCHAR
STARTCHAR U+002D
ENCODING 45
SWIDTH 615 0
DWIDTH 8 0
BBX 7 1 1 3
BITMAP
FE
ENDCHAR
STARTCHAR U+002E
ENCODING 46
SWIDTH 615 0
DWIDTH 8 0
BBX 2 2 4 0
BITMAP
C0
C0
ENDCHAR
STARTCHAR U+002F
ENCODING 47
SWIDTH 615 0
DWIDTH 8 0
BBX 7 7 1 1
BITMAP
02
04
08
10
20
40
80
ENDCHAR
STARTCHAR U+0030
ENCODING 48
SWIDTH 615 0
DWIDTH 8 0
BBX 5 9 2 0
BITMAP
70
88
88
98
A8
C8
88
88
70
ENDCHAR
STARTCHAR U+0031
ENCODING 49
SWIDTH 615 0
DWIDTH 8 0
BBX 3 9 2 0
BITMAP
20
60
A0
20
20
20
20
20
20
ENDCHAR
STARTCHAR U+0032
ENCODING 50
SWIDTH 615 0
DWIDTH 8 0
BBX 5 9 2 0
BITMAP
70
88
08
08
10
20
40
80
F8
ENDCHAR
STARTCHAR U+0033
ENCODING 51
SWIDTH 615 0
DWIDTH 8 0
BBX 5 9 2 0
BITMAP
70
88
08
08
30
08
08
88
70
ENDCHAR
STARTCHAR U+0034
ENCODING 52
SWIDTH 615 0
DWIDTH 8 0
BBX 5 9 2 0
BITMAP
10
30
50
50
90
F8
10
10
10
ENDCHAR
STARTCHAR U+0035
ENCODING 53
SWIDTH 615 0
DWIDTH 8 0
BBX 5 9 2 0
BITMAP
F8
80
80
80
F0
08
08
88
70
ENDCHAR
STARTCHAR U+0036
ENCODING 54
SWIDTH 615 0
DWIDTH 8 0
BBX 5 9 2 0
BITMAP
30
40
80
80
F0
88
88
88
70
ENDCHAR
STARTCHAR U+0037
ENCODING 55
SWIDTH 615 0
DWIDTH 8 0
BBX 5 9 2 0
BITMAP
F8
08
08
10
10
20
20
40
40
ENDCHAR
STARTCHAR U+0038
ENCODING 56
SWIDTH 615 0
DWIDTH 8 0
BBX 5 9 2 0
BITMAP
70
88
88
88
70
88
88
88
70
ENDCHAR
STARTCHAR U+0039
ENCODING 57
SWIDTH 615 0
DWIDTH 8 0
BBX 5 9 2 0
BITMAP
70
88
88
88
78
08
08
10
60
ENDCHAR
STARTCHAR U+003A
ENCODING 58
SWIDTH 615 0
DWIDTH 8 0
BBX 2 6 4 0
BITMAP
C0
C0
00
00
C0
C0
ENDCHAR
STARTCHAR U+003B
ENCODING 59
SWIDTH 615 0
DWIDTH 8 0
BBX 4 8 2 -2
BITMAP
30
30
00
00
00
30
60
C0
ENDCHAR
STARTCHAR U+003C
ENCODING 60
SWIDTH 615 0
DWIDTH 8 0
BBX 4 7 2 0
BITMAP
10
20
40
80
40
20
10
ENDCHAR
STARTCHAR U+003D
ENCODING 61
SWIDTH 615 0
DWIDTH 8 0
BBX 5 3 2 2
BITMAP
F8
00
F8
ENDCHAR
STARTCHAR U+003E
ENCODING 62
SWIDTH 615 0
DWIDTH 8 0
BBX 4 7 3 0
BITMAP
80
40
20
10
20
40
80
ENDCHAR
STARTCHAR U+003F
ENCODING 63
SWIDTH 615 0
DWIDTH 8 0
BBX 5 9 2 0
BITMAP
70
88
08
08
10
20
20
00
20
ENDCHAR
STARTCHAR U+0040
ENCODING 64
SWIDTH 615 0
DWIDTH 8 0
BBX 7 9 1 0
BITMAP
3C
42
9A
AA
AA
AA
9C
40
38
ENDCHAR
STARTCHAR U+0041
ENCODING 65
SWIDTH 615 0
DWIDTH 8 0
BBX 6 9 2 0
BITMAP
30
48
48
84
84
FC
84
84
84
ENDCHAR
STARTCHAR U+0042
ENCODING 66
SWIDTH 615 0
DWIDTH 8 0
BBX 6 9 2 0
BITMAP
F8
84
84
84
F8
84
84
84
F8
ENDCHAR
STARTCHAR U+0043
ENCODING 67
SWIDTH 615 0
DWIDTH 8 0
BBX 7 9 1 0
BITMAP
3C
42
80
80
80
80
80
42
3C
ENDCHAR
STARTCHAR U+0044
ENCODING 68
SWIDTH 615 0
DWIDTH 8 0
BBX 6 9 2 0
BITMAP
F0
88
84
84
84
84
84
88
F0
ENDCHAR
STARTCHAR U+0045
ENCODING 69
SWIDTH 615 0
DWIDTH 8 0
BBX 6 9 2 0
BITMAP
FC
80
80
80
F0
80
80
80
FC
ENDCHAR
STARTCHAR U+0046
ENCODING 70
SWIDTH 615 0
DWIDTH 8 0
BBX 6 9 2 0
BITMAP
FC
80
80
80
F0
80
80
80
80
ENDCHAR
STARTCHAR U+0047
ENCODING 71
SWIDTH 615 0
DWIDTH 8 0
BBX 7 9 1 0
BITMAP
3C
42
80
80
80
8E
82
42
3C
ENDCHAR
STARTCHAR U+0048
ENCODING 72
SWIDTH 615 0
DWIDTH 8 0
BBX 6 9 2 0
BITMAP
84
84
84
84
FC
84
84
84
84
ENDCHAR
STARTCHAR U+0049
ENCODING 73
SWIDTH 615 0
DWIDTH 8 0
BBX 3 9 3 0
BITMAP
E0
40
40
40
40
40
40
40
E0
ENDCHAR
STARTCHAR U+004A
ENCODING 74
SWIDTH 615 0
DWIDTH 8 0
BBX 6 9 2 0
BITMAP
7C
04
04
04
04
04
04
84
78
ENDCHAR
STARTCHAR U+004B
ENCODING 75
SWIDTH 615 0
DWIDTH 8 0
BBX 6 9 2 0
BITMAP
84
88
90
A0
C0
A0
90
88
84
ENDCHAR
STARTCHAR U+004C
ENCODING 76
SWIDTH 615 0
DWIDTH 8 0
BBX 6 9 2 0
BITMAP
80
80
80
80
80
80
80
80
FC
ENDCHAR
STARTCHAR U+004D
ENCODING 77
SWIDTH 615 0
DWIDTH 8 0
BBX 7 9 1 0
BITMAP
82
C6
AA
AA
92
92
82
82
82
ENDCHAR
STARTCHAR U+004E
ENCODING 78
SWIDTH 615 0
DWIDTH 8 0
BBX 6 9 2 0
BITMAP
84
C4
A4
A4
94
94
94
8C
84
ENDCHAR
STARTCHAR U+004F
ENCODING 79
SWIDTH 615 0
DWIDTH 8 0
BBX 7 9 1 0
BITMAP
38
44
82
82
82
82
82
44
38
ENDCHAR
STARTCHAR U+0050
ENCODING 80
SWIDTH 615 0
DWIDTH 8 0
BBX 6 9 2 0
BITMAP
F8
84
84
84
F8
80
80
80
80
ENDCHAR
STARTCHAR U+0051
ENCODING 81
SWIDTH 615 0
DWIDTH 8 0
BBX 7 9 1 0
BITMAP
38
44
82
82
82
82
8A
44
3A
ENDCHAR
STARTCHAR U+0052
ENCODING 82
SWIDTH 615 0
DWIDTH 8 0
BBX 6 9 2 0
BITMAP
F8
84
84
84
F8
A0
90
88
84
ENDCHAR
STARTCHAR U+0053
ENCODING 83
SWIDTH 615 0
DWIDTH 8 0
BBX 7 9 1 0
BITMAP
7C
82
80
80
7C
02
02
82
7C
ENDCHAR
STARTCHAR U+0054
ENCODING 84
SWIDTH 615 0
DWIDTH 8 0
BBX 7 9 1 0
BITMAP
FE
10
10
10
10
10
10
10
10
ENDCHAR
STARTCHAR U+0055
ENCODING 85
SWIDTH 615 0
DWIDTH 8 0
BBX 6 9 2 0
BITMAP
84
84
84
84
84
84
84
84
78
ENDCHAR
STARTCHAR U+0056
ENCODING 86
SWIDTH 615 0
DWIDTH 8 0
BBX 7 9 1 0
BITMAP
82
82
82
44
44
28
28
10
10
ENDCHAR
STARTCHAR U+0057
ENCODING 87
SWIDTH 615 0
DWIDTH 8 0
BBX 7 9 1 0
BITMAP
82
82
82
82
54
54
54
54
28
ENDCHAR
STARTCHAR U+0058
ENCODING 88
SWIDTH 615 0
DWIDTH 8 0
BBX 7 9 1 0
BITMAP
82
82
44
28
10
28
44
82
82
ENDCHAR
STARTCHAR U+0059
ENCODING 89
SWIDTH 615 0
DWIDTH 8 0
BBX 7 9 1 0
BITMAP
82
82
82
44
28
10
10
10
10
ENDCHAR
STARTCHAR U+005A
ENCODING 90
SWIDTH 615 0
DWIDTH 8 0
BBX 7 9 1 0
BITMAP
FE
02
04
08
10
20
40
80
FE
ENDCHAR
STARTCHAR U+005B
ENCODING 91
SWIDTH 615 0
DWIDTH 8 0
BBX 3 11 3 -2
BITMAP
E0
80
80
80
80
80
80
80
80
80
E0
ENDCHAR
STARTCHAR U+005C
ENCODING 92
SWIDTH 615 0
DWIDTH 8 0
BBX 7 7 1 1
BITMAP
80
40
20
10
08
04
02
ENDCHAR
STARTCHAR U+005D
ENCODING 93
SWIDTH 615 0
DWIDTH 8 0
BBX 3 11 3 -2
BITMAP
E0
20
20
20
20
20
20
20
20
20
E0
ENDCHAR
STARTCHAR U+005E
ENCODING 94
SWIDTH 615 0
DWIDTH 8 0
BBX 5 3 2 7
BITMAP
20
50
88
ENDCHAR
STARTCHAR U+005F
ENCODING 95
SWIDTH 615 0
DWIDTH 8 0
BBX 8 1 0 -2
BITMAP
FF
ENDCHAR
STARTCHAR U+0060
ENCODING 96
SWIDTH 615 0
DWIDTH 8 0
BBX 4 3 2 7
BITMAP
C0
60
30
ENDCHAR
STARTCHAR U+0061
ENCODING 97
SWIDTH 615 0
DWIDTH 8 0
BBX 6 6 2 0
BITMAP
78
04
7C
84
84
7C
ENDCHAR
STARTCHAR U+0062
ENCODING 98
SWIDTH 615 0
DWIDTH 8 0
BBX 6 9 2 0
BITMAP
80
80
80
B8
C4
84
84
84
F8
ENDCHAR
STARTCHAR U+0063
ENCODING 99
SWIDTH 615 0
DWIDTH 8 0
BBX 6 6 2 0
BITMAP
78
84
80
80
84
78
ENDCHAR
STARTCHAR U+0064
ENCODING 100
SWIDTH 615 0
DWIDTH 8 0
BBX 6 9 2 0
BITMAP
04
04
04
7C
84
84
84
84
7C
ENDCHAR
STARTCHAR U+0065
ENCODING 101
SWIDTH 615 0
DWIDTH 8 0
BBX 6 6 2 0
BITMAP
78
84
FC
80
84
78
ENDCHAR
STARTCHAR U+0066
ENCODING 102
SWIDTH 615 0
DWIDTH 8 0
BBX 4 9 3 0
BITMAP
30
40
40
F0
40
40
40
40
40
ENDCHAR
STARTCHAR U+0067
ENCODING 103
SWIDTH 615 0
DWIDTH 8 0
BBX 6 8 2 -2
BITMAP
7C
84
84
84
7C
04
04
78
ENDCHAR
STARTCHAR U+0068
ENCODING 104
SWIDTH 615 0
DWIDTH 8 0
BBX 6 9 2 0
BITMAP
80
80
80
B8
C4
84
84
84
84
ENDCHAR
STARTCHAR U+0069
ENCODING 105
SWIDTH 615 0
DWIDTH 8 0
BBX 1 9 4 0
BITMAP
80
00
00
80
80
80
80
80
80
ENDCHAR
STARTCHAR U+006A
ENCODING 106
SWIDTH 615 0
DWIDTH 8 0
BBX 4 11 2 -2
BITMAP
10
00
00
10
10
10
10
10
10
10
E0
ENDCHAR
STARTCHAR U+006B
ENCODING 107
SWIDTH 615 0
DWIDTH 8 0
BBX 5 9 3 0
BITMAP
80
80
80
88
90
E0
A0
90
88
ENDCHAR
STARTCHAR U+006C
ENCODING 108
SWIDTH 615 0
DWIDTH 8 0
BBX 4 9 4 0
BITMAP
80
80
80
80
80
80
80
90
60
ENDCHAR
STARTCHAR U+006D
ENCODING 109
SWIDTH 615 0
DWIDTH 8 0
BBX 7 6 1 0
BITMAP
EC
92
92
92
92
92
ENDCHAR
STARTCHAR U+006E
ENCODING 110
SWIDTH 615 0
DWIDTH 8 0
BBX 6 6 2 0
BITMAP
B8
C4
84
84
84
84
ENDCHAR
STARTCHAR U+006F
ENCODING 111
SWIDTH 615 0
DWIDTH 8 0
BBX 6 6 2 0
BITMAP
78
84
84
84
84
78
ENDCHAR
STARTCHAR U+0070
ENCODING 112
SWIDTH 615 0
DWIDTH 8 0
BBX 6 8 2 -2
BITMAP
F8
84
84
84
84
F8
80
80
ENDCHAR
STARTCHAR U+0071
ENCODING 113
SWIDTH 615 0
DWIDTH 8 0
BBX 6 8 2 -2
BITMAP
7C
84
84
84
84
7C
04
04
ENDCHAR
STARTCHAR U+0072
ENCODING 114
SWIDTH 615 0
DWIDTH 8 0
BBX 5 6 3 0
BITMAP
B0
C8
80
80
80
80
ENDCHAR
STARTCHAR U+0073
ENCODING 115
SWIDTH 615 0
DWIDTH 8 0
BBX 6 6 2 0
BITMAP
78
84
60
18
84
78
ENDCHAR
STARTCHAR U+0074
ENCODING 116
SWIDTH 615 0
DWIDTH 8 0
BBX 4 8 3 0
BITMAP
40
40
F0
40
40
40
40
30
ENDCHAR
STARTCHAR U+0075
ENCODING 117
SWIDTH 615 0
DWIDTH 8 0
BBX 6 6 2 0
BITMAP
84
84
84
84
8C
74
ENDCHAR
STARTCHAR U+0076
ENCODING 118
SWIDTH 615 0
DWIDTH 8 0
BBX 5 6 2 0
BITMAP
88
88
50
50
50
20
ENDCHAR
STARTCHAR U+0077
ENCODING 119
SWIDTH 615 0
DWIDTH 8 0
BBX 7 6 1 0
BITMAP
82
82
54
54
54
28
ENDCHAR
STARTCHAR U+0078
ENCODING 120
SWIDTH 615 0
DWIDTH 8 0
BBX 6 6 2 0
BITMAP
84
48
30
30
48
84
ENDCHAR
STARTCHAR U+0079
ENCODING 121
SWIDTH 615 0
DWIDTH 8 0
BBX 7 8 1 -2
BITMAP
82
44
44
28
28
10
10
60
ENDCHAR
STARTCHAR U+007A
ENCODING 122
SWIDTH 615 0
DWIDTH 8 0
BBX 6 6 2 0
BITMAP
FC
08
10
20
40
FC
ENDCHAR
STARTCHAR U+007B
ENCODING 123
SWIDTH 615 0
DWIDTH 8 0
BBX 5 11 2 -2
BITMAP
18
20
20
20
20
C0
20
20
20
20
18
ENDCHAR
STARTCHAR U+007C
ENCODING 124
SWIDTH 615 0
DWIDTH 8 0
BBX 1 12 4 -2
BITMAP
80
80
80
80
80
80
80
80
80
80
80
80
ENDCHAR
STARTCHAR U+007D
ENCODING 125
SWIDTH 615 0
DWIDTH 8 0
BBX 5 11 2 -2
BITMAP
C0
20
20
20
20
18
20
20
20
20
C0
ENDCHAR
STARTCHAR U+007E
ENCODING 126
SWIDTH 615 0
DWIDTH 8 0
BBX 7 3 1 2
BITMAP
62
92
8C
ENDCHAR
STARTCHAR U+00A0
ENCODING 160
SWIDTH 615 0
DWIDTH 8 0
BBX 1 1 7 -2
BITMAP
00
ENDCHAR
STARTCHAR U+00A1
ENCODING 161
SWIDTH 615 0
DWIDTH 8 0
BBX 1 9 4 0
BITMAP
80
00
80
80
80
80
80
80
80
ENDCHAR
STARTCHAR U+00A2
ENCODING 162
SWIDTH 615 0
DWIDTH 8 0
BBX 5 7 2 0
BITMAP
20
70
88
80
88
70
20
ENDCHAR
STARTCHAR U+00A3
ENCODING 163
SWIDTH 615 0
DWIDTH 8 0
BBX 5 8 2 0
BITMAP
60
90
80
40
F0
40
40
F8
ENDCHAR
STARTCHAR U+00A4
ENCODING 164
SWIDTH 615 0
DWIDTH 8 0
BBX 7 7 1 2
BITMAP
82
7C
44
44
44
7C
82
ENDCHAR
STARTCHAR U+00A5
ENCODING 165
SWIDTH 615 0
DWIDTH 8 0
BBX 7 8 1 0
BITMAP
EE
44
FE
28
FE
10
10
38
ENDCHAR
STARTCHAR U+00A6
ENCODING 166
SWIDTH 615 0
DWIDTH 8 0
BBX 1 11 4 -2
BITMAP
80
80
80
80
80
00
80
80
80
80
80
ENDCHAR
STARTCHAR U+00A7
ENCODING 167
SWIDTH 615 0
DWIDTH 8 0
BBX 6 9 1 0
BITMAP
3C
44
A0
90
48
24
14
88
F0
ENDCHAR
STARTCHAR U+00A8
ENCODING 168
SWIDTH 615 0
DWIDTH 8 0
BBX 5 1 2 8
BITMAP
88
ENDCHAR
STARTCHAR U+00A9
ENCODING 169
SWIDTH 615 0
DWIDTH 8 0
BBX 7 8 1 1
BITMAP
38
44
9A
A2
A2
9A
44
38
ENDCHAR
STARTCHAR U+00AA
ENCODING 170
SWIDTH 615 0
DWIDTH 8 0
BBX 4 7 2 2
BITMAP
60
10
70
90
70
00
F0
ENDCHAR
STARTCHAR U+00AB
ENCODING 171
SWIDTH 615 0
DWIDTH 8 0
BBX 7 5 1 0
BITMAP
22
44
88
44
22
ENDCHAR
STARTCHAR U+00AC
ENCODING 172
SWIDTH 615 0
DWIDTH 8 0
BBX 5 2 2 4
BITMAP
F8
08
ENDCHAR
STARTCHAR U+00AD
ENCODING 173
SWIDTH 615 0
DWIDTH 8 0
BBX 7 1 1 3
BITMAP
FE
ENDCHAR
STARTCHAR U+00AE
ENCODING 174
SWIDTH 615 0
DWIDTH 8 0
BBX 7 8 1 1
BITMAP
38
44
B2
AA
B2
AA
44
38
ENDCHAR
STARTCHAR U+00AF
ENCODING 175
SWIDTH 615 0
DWIDTH 8 0
BBX 8 1 0 9
BITMAP
FF
ENDCHAR
STARTCHAR U+00B0
ENCODING 176
SWIDTH 615 0
DWIDTH 8 0
BBX 3 3 3 6
BITMAP
40
A0
40
ENDCHAR
STARTCHAR U+00B1
ENCODING 177
SWIDTH 615 0
DWIDTH 8 0
BBX 7 9 1 0
BITMAP
10
10
10
FE
10
10
10
00
FE
ENDCHAR
STARTCHAR U+00B2
ENCODING 178
SWIDTH 615 0
DWIDTH 8 0
BBX 3 5 3 4
BITMAP
40
A0
20
40
E0
ENDCHAR
STARTCHAR U+00B3
ENCODING 179
SWIDTH 615 0
DWIDTH 8 0
BBX 3 5 3 4
BITMAP
C0
20
40
20
C0
ENDCHAR
STARTCHAR U+00B4
ENCODING 180
SWIDTH 615 0
DWIDTH 8 0
BBX 3 3 4 7
BITMAP
20
40
80
ENDCHAR
STARTCHAR U+00B5
ENCODING 181
SWIDTH 615 0
DWIDTH 8 0
BBX 6 8 1 -2
BITMAP
44
44
44
44
44
78
40
80
ENDCHAR
STARTCHAR U+00B6
ENCODING 182
SWIDTH 615 0
DWIDTH 8 0
BBX 6 9 1 0
BITMAP
7C
F4
F4
F4
74
14
14
14
14
ENDCHAR
STARTCHAR U+00B7
ENCODING 183
SWIDTH 615 0
DWIDTH 8 0
BBX 1 1 4 3
BITMAP
80
ENDCHAR
STARTCHAR U+00B8
ENCODING 184
SWIDTH 615 0
DWIDTH 8 0
BBX 3 3 3 -2
BITMAP
40
20
C0
ENDCHAR
STARTCHAR U+00B9
ENCODING 185
SWIDTH 615 0
DWIDTH 8 0
BBX 2 5 3 4
BITMAP
C0
40
40
40
40
ENDCHAR
STARTCHAR U+00BA
ENCODING 186
SWIDTH 615 0
DWIDTH 8 0
BBX 4 7 2 2
BITMAP
60
90
90
90
60
00
F0
ENDCHAR
STARTCHAR U+00BB
ENCODING 187
SWIDTH 615 0
DWIDTH 8 0
BBX 7 5 1 0
BITMAP
88
44
22
44
88
ENDCHAR
STARTCHAR U+00BC
ENCODING 188
SWIDTH 615 0
DWIDTH 8 0
BBX 7 9 1 0
BITMAP
C0
42
44
48
F2
26
4A
9E
02
ENDCHAR
STARTCHAR U+00BD
ENCODING 189
SWIDTH 615 0
DWIDTH 8 0
BBX 7 9 1 0
BITMAP
C0
42
44
48
F4
2A
42
84
0E
ENDCHAR
STARTCHAR U+00BE
ENCODING 190
SWIDTH 615 0
DWIDTH 8 0
BBX 7 9 1 0
BITMAP
C0
22
44
28
D2
26
4A
9E
02
ENDCHAR
STARTCHAR U+00BF
ENCODING 191
SWIDTH 615 0
DWIDTH 8 0
BBX 5 9 2 0
BITMAP
20
00
20
20
40
80
80
88
70
ENDCHAR
STARTCHAR U+00C0
ENCODING 192
SWIDTH 615 0
DWIDTH 8 0
BBX 6 11 2 0
BITMAP
20
10
38
48
48
84
84
FC
84
84
84
ENDCHAR
STARTCHAR U+00C1
ENCODING 193
SWIDTH 615 0
DWIDTH 8 0
BBX 6 11 2 0
BITMAP
10
20
70
48
48
84
84
FC
84
84
84
ENDCHAR
STARTCHAR U+00C2
ENCODING 194
SWIDTH 615 0
DWIDTH 8 0
BBX 6 11 2 0
BITMAP
30
48
30
48
48
84
84
FC
84
84
84
ENDCHAR
STARTCHAR U+00C3
ENCODING 195
SWIDTH 615 0
DWIDTH 8 0
BBX 6 11 2 0
BITMAP
64
98
30
48
48
84
84
FC
84
84
84
ENDCHAR
STARTCHAR U+00C4
ENCODING 196
SWIDTH 615 0
DWIDTH 8 0
BBX 6 11 2 0
BITMAP
48
00
30
48
48
84
84
FC
84
84
84
ENDCHAR
STARTCHAR U+00C5
ENCODING 197
SWIDTH 615 0
DWIDTH 8 0
BBX 6 11 2 0
BITMAP
30
48
30
48
48
84
84
84
FC
84
84
ENDCHAR
STARTCHAR U+00C6
ENCODING 198
SWIDTH 615 0
DWIDTH 8 0
BBX 7 9 1 0
BITMAP
3E
50
50
50
9C
90
F0
90
9E
ENDCHAR
STARTCHAR U+00C7
ENCODING 199
SWIDTH 615 0
DWIDTH 8 0
BBX 7 10 1 -2
BITMAP
3C
42
80
80
80
80
42
3C
08
18
ENDCHAR
STARTCHAR U+00C8
ENCODING 200
SWIDTH 615 0
DWIDTH 8 0
BBX 6 11 2 0
BITMAP
40
20
FC
80
80
80
F0
80
80
80
FC
ENDCHAR
STARTCHAR U+00C9
ENCODING 201
SWIDTH 615 0
DWIDTH 8 0
BBX 6 11 2 0
BITMAP
10
20
FC
80
80
80
F0
80
80
80
FC
ENDCHAR
STARTCHAR U+00CA
ENCODING 202
SWIDTH 615 0
DWIDTH 8 0
BBX 6 11 2 0
BITMAP
20
50
FC
80
80
80
F0
80
80
80
FC
ENDCHAR
STARTCHAR U+00CB
ENCODING 203
SWIDTH 615 0
DWIDTH 8 0
BBX 6 11 2 0
BITMAP
88
00
FC
80
80
80
F0
80
80
80
FC
ENDCHAR
STARTCHAR U+00CC
ENCODING 204
SWIDTH 615 0
DWIDTH 8 0
BBX 3 11 3 0
BITMAP
80
40
60
40
40
40
40
40
40
40
40
ENDCHAR
STARTCHAR U+00CD
ENCODING 205
SWIDTH 615 0
DWIDTH 8 0
BBX 3 11 3 0
BITMAP
20
40
C0
40
40
40
40
40
40
40
40
ENDCHAR
STARTCHAR U+00CE
ENCODING 206
SWIDTH 615 0
DWIDTH 8 0
BBX 3 11 3 0
BITMAP
40
A0
40
40
40
40
40
40
40
40
40
ENDCHAR
STARTCHAR U+00CF
ENCODING 207
SWIDTH 615 0
DWIDTH 8 0
BBX 3 11 3 0
BITMAP
A0
00
40
40
40
40
40
40
40
40
40
ENDCHAR
STARTCHAR U+00D0
ENCODING 208
SWIDTH 615 0
DWIDTH 8 0
BBX 7 9 1 0
BITMAP
78
44
42
42
F2
42
42
44
78
ENDCHAR
STARTCHAR U+00D1
ENCODING 209
SWIDTH 615 0
DWIDTH 8 0
BBX 7 11 1 0
BITMAP
72
8C
42
62
62
52
4A
4A
46
46
42
ENDCHAR
STARTCHAR U+00D2
ENCODING 210
SWIDTH 615 0
DWIDTH 8 0
BBX 7 11 1 0
BITMAP
20
10
38
44
82
82
82
82
82
44
38
ENDCHAR
STARTCHAR U+00D3
ENCODING 211
SWIDTH 615 0
DWIDTH 8 0
BBX 7 11 1 0
BITMAP
08
10
38
44
82
82
82
82
82
44
38
ENDCHAR
STARTCHAR U+00D4
ENCODING 212
SWIDTH 615 0
DWIDTH 8 0
BBX 7 11 1 0
BITMAP
10
28
38
44
82
82
82
82
82
44
38
ENDCHAR
STARTCHAR U+00D5
ENCODING 213
SWIDTH 615 0
DWIDTH 8 0
BBX 7 11 1 0
BITMAP
72
9C
38
44
82
82
82
82
82
44
38
ENDCHAR
STARTCHAR U+00D6
ENCODING 214
SWIDTH 615 0
DWIDTH 8 0
BBX 7 11 1 0
BITMAP
44
00
38
44
82
82
82
82
82
44
38
ENDCHAR
STARTCHAR U+00D7
ENCODING 215
SWIDTH 615 0
DWIDTH 8 0
BBX 7 7 1 0
BITMAP
82
44
28
10
28
44
82
ENDCHAR
STARTCHAR U+00D8
ENCODING 216
SWIDTH 615 0
DWIDTH 8 0
BBX 7 9 1 0
BITMAP
3A
44
8A
8A
92
A2
A2
44
B8
ENDCHAR
STARTCHAR U+00D9
ENCODING 217
SWIDTH 615 0
DWIDTH 8 0
BBX 6 11 2 0
BITMAP
40
20
94
84
84
84
84
84
84
84
78
ENDCHAR
STARTCHAR U+00DA
ENCODING 218
SWIDTH 615 0
DWIDTH 8 0
BBX 6 11 2 0
BITMAP
08
10
A4
84
84
84
84
84
84
84
78
ENDCHAR
STARTCHAR U+00DB
ENCODING 219
SWIDTH 615 0
DWIDTH 8 0
BBX 6 11 2 0
BITMAP
30
30
84
84
84
84
84
84
84
84
78
ENDCHAR
STARTCHAR U+00DC
ENCODING 220
SWIDTH 615 0
DWIDTH 8 0
BBX 6 11 2 0
BITMAP
84
00
84
84
84
84
84
84
84
84
78
ENDCHAR
STARTCHAR U+00DD
ENCODING 221
SWIDTH 615 0
DWIDTH 8 0
BBX 7 11 1 0
BITMAP
08
10
8A
44
44
28
28
10
10
10
10
ENDCHAR
STARTCHAR U+00DE
ENCODING 222
SWIDTH 615 0
DWIDTH 8 0
BBX 6 9 2 0
BITMAP
80
80
F8
84
84
84
F8
80
80
ENDCHAR
STARTCHAR U+00DF
ENCODING 223
SWIDTH 615 0
DWIDTH 8 0
BBX 6 9 2 0
BITMAP
70
88
88
88
B8
84
84
84
B8
ENDCHAR
STARTCHAR U+00E0
ENCODING 224
SWIDTH 615 0
DWIDTH 8 0
BBX 6 9 2 0
BITMAP
20
10
00
78
04
7C
84
84
7C
ENDCHAR
STARTCHAR U+00E1
ENCODING 225
SWIDTH 615 0
DWIDTH 8 0
BBX 6 9 2 0
BITMAP
08
10
00
78
04
7C
84
84
7C
ENDCHAR
STARTCHAR U+00E2
ENCODING 226
SWIDTH 615 0
DWIDTH 8 0
BBX 6 9 2 0
BITMAP
10
28
00
7C
04
7C
84
84
7C
ENDCHAR
STARTCHAR U+00E3
ENCODING 227
SWIDTH 615 0
DWIDTH 8 0
BBX 6 9 2 0
BITMAP
64
98
00
78
04
7C
84
84
7C
ENDCHAR
STARTCHAR U+00E4
ENCODING 228
SWIDTH 615 0
DWIDTH 8 0
BBX 6 9 2 0
BITMAP
48
00
00
78
04
7C
84
84
7C
ENDCHAR
STARTCHAR U+00E5
ENCODING 229
SWIDTH 615 0
DWIDTH 8 0
BBX 6 10 2 0
BITMAP
20
50
20
00
78
04
7C
84
84
7C
ENDCHAR
STARTCHAR U+00E6
ENCODING 230
SWIDTH 615 0
DWIDTH 8 0
BBX 7 6 1 0
BITMAP
6C
12
7E
90
92
6C
ENDCHAR
STARTCHAR U+00E7
ENCODING 231
SWIDTH 615 0
DWIDTH 8 0
BBX 6 8 2 -2
BITMAP
78
84
80
80
84
78
10
30
ENDCHAR
STARTCHAR U+00E8
ENCODING 232
SWIDTH 615 0
DWIDTH 8 0
BBX 6 9 2 0
BITMAP
20
10
00
78
84
FC
80
84
78
ENDCHAR
STARTCHAR U+00E9
ENCODING 233
SWIDTH 615 0
DWIDTH 8 0
BBX 6 9 2 0
BITMAP
10
20
00
78
84
FC
80
84
78
ENDCHAR
STARTCHAR U+00EA
ENCODING 234
SWIDTH 615 0
DWIDTH 8 0
BBX 6 9 2 0
BITMAP
10
28
00
78
84
FC
80
84
78
ENDCHAR
STARTCHAR U+00EB
ENCODING 235
SWIDTH 615 0
DWIDTH 8 0
BBX 6 9 2 0
BITMAP
48
00
00
78
84
FC
80
84
78
ENDCHAR
STARTCHAR U+00EC
ENCODING 236
SWIDTH 615 0
DWIDTH 8 0
BBX 2 9 3 0
BITMAP
80
40
00
40
40
40
40
40
40
ENDCHAR
STARTCHAR U+00ED
ENCODING 237
SWIDTH 615 0
DWIDTH 8 0
BBX 2 9 4 0
BITMAP
40
80
00
80
80
80
80
80
80
ENDCHAR
STARTCHAR U+00EE
ENCODING 238
SWIDTH 615 0
DWIDTH 8 0
BBX 3 9 3 0
BITMAP
40
A0
00
40
40
40
40
40
40
ENDCHAR
STARTCHAR U+00EF
ENCODING 239
SWIDTH 615 0
DWIDTH 8 0
BBX 2 9 4 0
BITMAP
C0
00
00
80
80
80
80
80
80
ENDCHAR
STARTCHAR U+00F0
ENCODING 240
SWIDTH 615 0
DWIDTH 8 0
BBX 6 9 2 0
BITMAP
50
20
50
08
78
84
84
84
78
ENDCHAR
STARTCHAR U+00F1
ENCODING 241
SWIDTH 615 0
DWIDTH 8 0
BBX 6 9 2 0
BITMAP
64
98
00
B8
C4
84
84
84
84
ENDCHAR
STARTCHAR U+00F2
ENCODING 242
SWIDTH 615 0
DWIDTH 8 0
BBX 6 9 2 0
BITMAP
20
10
00
78
84
84
84
84
78
ENDCHAR
STARTCHAR U+00F3
ENCODING 243
SWIDTH 615 0
DWIDTH 8 0
BBX 6 9 2 0
BITMAP
10
20
00
78
84
84
84
84
78
ENDCHAR
STARTCHAR U+00F4
ENCODING 244
SWIDTH 615 0
DWIDTH 8 0
BBX 6 9 2 0
BITMAP
30
48
00
78
84
84
84
84
78
ENDCHAR
STARTCHAR U+00F5
ENCODING 245
SWIDTH 615 0
DWIDTH 8 0
BBX 6 9 2 0
BITMAP
64
98
00
78
84
84
84
84
78
ENDCHAR
STARTCHAR U+00F6
ENCODING 246
SWIDTH 615 0
DWIDTH 8 0
BBX 6 9 2 0
BITMAP
48
00
00
78
84
84
84
84
78
ENDCHAR
STARTCHAR U+00F7
ENCODING 247
SWIDTH 615 0
DWIDTH 8 0
BBX 5 7 2 0
BITMAP
20
00
00
F8
00
00
20
ENDCHAR
STARTCHAR U+00F8
ENCODING 248
SWIDTH 615 0
DWIDTH 8 0
BBX 6 6 2 0
BITMAP
7C
8C
94
A4
C4
F8
ENDCHAR
STARTCHAR U+00F9
ENCODING 249
SWIDTH 615 0
DWIDTH 8 0
BBX 6 9 2 0
BITMAP
20
10
00
84
84
84
84
8C
74
ENDCHAR
STARTCHAR U+00FA
ENCODING 250
SWIDTH 615 0
DWIDTH 8 0
BBX 6 9 2 0
BITMAP
10
20
00
84
84
84
84
8C
74
ENDCHAR
STARTCHAR U+00FB
ENCODING 251
SWIDTH 615 0
DWIDTH 8 0
BBX 6 9 2 0
BITMAP
10
28
00
84
84
84
84
8C
74
ENDCHAR
STARTCHAR U+00FC
ENCODING 252
SWIDTH 615 0
DWIDTH 8 0
BBX 6 9 2 0
BITMAP
48
00
00
84
84
84
84
8C
74
ENDCHAR
STARTCHAR U+00FD
ENCODING 253
SWIDTH 615 0
DWIDTH 8 0
BBX 7 11 1 -2
BITMAP
08
10
00
82
44
44
28
28
10
10
60
ENDCHAR
STARTCHAR U+00FE
ENCODING 254
SWIDTH 615 0
DWIDTH 8 0
BBX 6 11 2 -2
BITMAP
80
80
80
F8
84
84
84
84
F8
80
80
ENDCHAR
STARTCHAR U+00FF
ENCODING 255
SWIDTH 615 0
DWIDTH 8 0
BBX 7 11 1 -2
BITMAP
44
00
00
82
44
44
28
28
10
10
60
ENDCHAR
STARTCHAR U+0152
ENCODING 338
SWIDTH 615 0
DWIDTH 8 0
BBX 3 9 3 -1
BITMAP
E0
E0
E0
E0
E0
E0
E0
E0
E0
ENDCHAR
STARTCHAR U+0153
ENCODING 339
SWIDTH 615 0
DWIDTH 8 0
BBX 3 9 3 -1
BITMAP
E0
E0
E0
E0
E0
E0
E0
E0
E0
ENDCHAR
STARTCHAR U+0160
ENCODING 352
SWIDTH 615 0
DWIDTH 8 0
BBX 3 9 3 -1
BITMAP
E0
E0
E0
E0
E0
E0
E0
E0
E0
ENDCHAR
STARTCHAR U+0161
ENCODING 353
SWIDTH 615 0
DWIDTH 8 0
BBX 3 9 3 -1
BITMAP
E0
E0
E0
E0
E0
E0
E0
E0
E0
ENDCHAR
STARTCHAR U+0178
ENCODING 376
SWIDTH 615 0
DWIDTH 8 0
BBX 3 9 3 -1
BITMAP
E0
E0
E0
E0
E0
E0
E0
E0
E0
ENDCHAR
STARTCHAR U+0192
ENCODING 402
SWIDTH 615 0
DWIDTH 8 0
BBX 7 11 1 -2
BITMAP
0C
12
10
3C
10
10
10
10
90
90
60
ENDCHAR
STARTCHAR U+02C6
ENCODING 710
SWIDTH 615 0
DWIDTH 8 0
BBX 3 9 3 -1
BITMAP
E0
E0
E0
E0
E0
E0
E0
E0
E0
ENDCHAR
STARTCHAR U+02DC
ENCODING 732
SWIDTH 615 0
DWIDTH 8 0
BBX 3 9 3 -1
BITMAP
E0
E0
E0
E0
E0
E0
E0
E0
E0
ENDCHAR
STARTCHAR U+03BB
ENCODING 955
SWIDTH 1000 0
DWIDTH 8 0
BBX 6 9 2 0
BITMAP
C0
20
20
10
30
28
48
44
84
ENDCHAR
STARTCHAR U+2013
ENCODING 8211
SWIDTH 615 0
DWIDTH 8 0
BBX 3 9 3 -1
BITMAP
E0
E0
E0
E0
E0
E0
E0
E0
E0
ENDCHAR
STARTCHAR U+2014
ENCODING 8212
SWIDTH 615 0
DWIDTH 8 0
BBX 3 9 3 -1
BITMAP
E0
E0
E0
E0
E0
E0
E0
E0
E0
ENDCHAR
STARTCHAR U+2018
ENCODING 8216
SWIDTH 615 0
DWIDTH 8 0
BBX 2 3 3 6
BITMAP
40
80
80
ENDCHAR
STARTCHAR U+2019
ENCODING 8217
SWIDTH 615 0
DWIDTH 8 0
BBX 2 3 3 6
BITMAP
40
40
80
ENDCHAR
STARTCHAR U+201A
ENCODING 8218
SWIDTH 615 0
DWIDTH 8 0
BBX 3 9 3 -1
BITMAP
E0
E0
E0
E0
E0
E0
E0
E0
E0
ENDCHAR
STARTCHAR U+201C
ENCODING 8220
SWIDTH 615 0
DWIDTH 8 0
BBX 4 3 2 6
BITMAP
50
A0
A0
ENDCHAR
STARTCHAR U+201D
ENCODING 8221
SWIDTH 615 0
DWIDTH 8 0
BBX 4 3 2 6
BITMAP
50
50
A0
ENDCHAR
STARTCHAR U+201E
ENCODING 8222
SWIDTH 615 0
DWIDTH 8 0
BBX 3 9 3 -1
BITMAP
E0
E0
E0
E0
E0
E0
E0
E0
E0
ENDCHAR
STARTCHAR U+2020
ENCODING 8224
SWIDTH 615 0
DWIDTH 8 0
BBX 3 9 3 -1
BITMAP
E0
E0
E0
E0
E0
E0
E0
E0
E0
ENDCHAR
STARTCHAR U+2021
ENCODING 8225
SWIDTH 615 0
DWIDTH 8 0
BBX 3 9 3 -1
BITMAP
E0
E0
E0
E0
E0
E0
E0
E0
E0
ENDCHAR
STARTCHAR U+2022
ENCODING 8226
SWIDTH 615 0
DWIDTH 8 0
BBX 4 4 2 2
BITMAP
60
F0
F0
60
ENDCHAR
STARTCHAR U+2024
ENCODING 8228
SWIDTH 1000 0
DWIDTH 8 0
BBX 2 2 4 0
BITMAP
C0
C0
ENDCHAR
STARTCHAR U+2025
ENCODING 8229
SWIDTH 1000 0
DWIDTH 8 0
BBX 5 2 2 0
BITMAP
D8
D8
ENDCHAR
STARTCHAR U+2026
ENCODING 8230
SWIDTH 615 0
DWIDTH 8 0
BBX 5 2 2 0
BITMAP
A8
A8
ENDCHAR
STARTCHAR U+2030
ENCODING 8240
SWIDTH 615 0
DWIDTH 8 0
BBX 3 9 3 -1
BITMAP
E0
E0
E0
E0
E0
E0
E0
E0
E0
ENDCHAR
STARTCHAR U+2039
ENCODING 8249
SWIDTH 615 0
DWIDTH 8 0
BBX 3 9 3 -1
BITMAP
E0
E0
E0
E0
E0
E0
E0
E0
E0
ENDCHAR
STARTCHAR U+203A
ENCODING 8250
SWIDTH 615 0
DWIDTH 8 0
BBX 3 9 3 -1
BITMAP
E0
E0
E0
E0
E0
E0
E0
E0
E0
ENDCHAR
STARTCHAR U+20AC
ENCODING 8364
SWIDTH 615 0
DWIDTH 8 0
BBX 7 9 1 0
BITMAP
1C
22
40
FC
40
F8
40
22
1C
ENDCHAR
STARTCHAR U+2122
ENCODING 8482
SWIDTH 615 0
DWIDTH 8 0
BBX 3 9 3 -1
BITMAP
E0
E0
E0
E0
E0
E0
E0
E0
E0
ENDCHAR
STARTCHAR U+2190
ENCODING 8592
SWIDTH 1000 0
DWIDTH 8 0
BBX 7 7 1 0
BITMAP
10
20
40
FE
40
20
10
ENDCHAR
STARTCHAR U+2192
ENCODING 8594
SWIDTH 1000 0
DWIDTH 8 0
BBX 7 7 1 0
BITMAP
10
08
04
FE
04
08
10
ENDCHAR
STARTCHAR U+21D0
ENCODING 8656
SWIDTH 1000 0
DWIDTH 8 0
BBX 7 7 1 0
BITMAP
10
20
7E
C0
7E
20
10
ENDCHAR
STARTCHAR U+21D2
ENCODING 8658
SWIDTH 1000 0
DWIDTH 8 0
BBX 7 7 1 0
BITMAP
10
08
FC
06
FC
08
10
ENDCHAR
STARTCHAR U+2260
ENCODING 8800
SWIDTH 1000 0
DWIDTH 8 0
BBX 5 5 2 1
BITMAP
10
F8
20
F8
40
ENDCHAR
STARTCHAR U+2261
ENCODING 8801
SWIDTH 1000 0
DWIDTH 8 0
BBX 5 5 2 1
BITMAP
F8
00
F8
00
F8
ENDCHAR
STARTCHAR U+2262
ENCODING 8802
SWIDTH 1000 0
DWIDTH 8 0
BBX 5 7 2 0
BITMAP
10
F8
20
F8
20
F8
40
ENDCHAR
STARTCHAR U+2263
ENCODING 8803
SWIDTH 1000 0
DWIDTH 8 0
BBX 5 7 2 0
BITMAP
F8
00
F8
00
F8
00
F8
ENDCHAR
STARTCHAR U+2264
ENCODING 8804
SWIDTH 1000 0
DWIDTH 8 0
BBX 6 7 1 0
BITMAP
0C
30
C0
30
0C
00
FC
ENDCHAR
STARTCHAR U+2265
ENCODING 8805
SWIDTH 1000 0
DWIDTH 8 0
BBX 6 7 1 0
BITMAP
C0
30
0C
30
C0
00
FC
ENDCHAR
STARTCHAR U+2A75
ENCODING 10869
SWIDTH 1000 0
DWIDTH 8 0
BBX 5 3 2 2
BITMAP
D8
00
D8
ENDCHAR
STARTCHAR U+1D60D
ENCODING 120333
SWIDTH 1000 0
DWIDTH 8 0
BBX 7 9 1 0
BITMAP
3E
20
20
40
78
40
80
80
80
ENDCHAR
ENDFONT
